<?xml version="1.0" encoding="UTF-8" standalone="no"?>
<svg
   xmlns:dc="http://purl.org/dc/elements/1.1/"
   xmlns:cc="http://creativecommons.org/ns#"
   xmlns:rdf="http://www.w3.org/1999/02/22-rdf-syntax-ns#"
   xmlns:svg="http://www.w3.org/2000/svg"
   xmlns="http://www.w3.org/2000/svg"
   xmlns:sodipodi="http://sodipodi.sourceforge.net/DTD/sodipodi-0.dtd"
   xmlns:inkscape="http://www.inkscape.org/namespaces/inkscape"
   inkscape:version="1.0 (1.0+r73+1)"
   sodipodi:docname="ajax.svg"
   id="svg52"
   version="1.1"
   viewBox="0 0 192.756 192.756"
   height="2500"
   width="2500">
  <metadata
     id="metadata58">
    <rdf:RDF>
      <cc:Work
         rdf:about="">
        <dc:format>image/svg+xml</dc:format>
        <dc:type
           rdf:resource="http://purl.org/dc/dcmitype/StillImage" />
        <dc:title></dc:title>
      </cc:Work>
    </rdf:RDF>
  </metadata>
  <defs
     id="defs56" />
  <sodipodi:namedview
     inkscape:current-layer="svg52"
     inkscape:window-maximized="1"
     inkscape:window-y="27"
     inkscape:window-x="0"
     inkscape:cy="1250"
     inkscape:cx="1250"
     inkscape:zoom="0.3"
     inkscape:pagecheckerboard="true"
     showgrid="false"
     id="namedview54"
     inkscape:window-height="943"
     inkscape:window-width="1920"
     inkscape:pageshadow="2"
     inkscape:pageopacity="0"
     guidetolerance="10"
     gridtolerance="10"
     objecttolerance="10"
     borderopacity="1"
     bordercolor="#666666"
     pagecolor="#ffffff" />
  <path
     style="display:none"
     id="path44"
     d="M 0,0 H 192.756 V 192.756 H 0 Z"
     fill="#ffffff"
     clip-rule="evenodd"
     fill-rule="evenodd" />
  <path
     id="path46"
     fill="#236bb3"
     clip-rule="evenodd"
     fill-rule="evenodd"
     d="M78.833 80.84h8.354l11.804 31.913h-8.577l-1.945-5.722H77.462l-1.989 5.722H67.03L78.833 80.84zm.531 20.023h7.161l-3.492-11.174h-.088l-3.581 11.174zM104.832 104.293s.961 2.407 2.994 2.407c1.9 0 2.965-1.5 2.965-4.585V80.84h8.223v21.812c0 7.151-3.625 10.728-11.051 10.772-4.666.027-7.275-2.922-7.812-4.396l4.681-4.735zM130.633 80.84h8.355l11.803 31.913h-8.576l-1.945-5.722h-11.006l-1.99 5.722h-8.443l11.802-31.913zm.531 20.023h7.16l-3.492-11.174h-.088l-3.58 11.174zM163.652 95.991l-10.3-15.151h9.681l5.305 9.923 5.613-9.923h9.373l-10.213 15.151 11.141 16.762h-9.99l-5.924-10.638-6.453 10.638h-9.461l11.228-16.762z" />
  <path
     id="path48"
     d="M22.934 120.979L8.504 96.455l13.969-24.679h29.014l13.97 24.679-14.43 24.524H22.934z"
     stroke-miterlimit="2.613"
     stroke-width=".621"
     stroke="#236bb3"
     fill="none" />
  <path
     id="path50"
     d="M44.886 108.097h9.518L37.44 78.606l-17.269 29.491h9.518l7.751-5.122 7.446 5.122z"
     fill="#236bb3"
     clip-rule="evenodd"
     fill-rule="evenodd" />
</svg>
