<?xml version="1.0" encoding="UTF-8" standalone="no"?>
<svg
   xmlns:dc="http://purl.org/dc/elements/1.1/"
   xmlns:cc="http://creativecommons.org/ns#"
   xmlns:rdf="http://www.w3.org/1999/02/22-rdf-syntax-ns#"
   xmlns:svg="http://www.w3.org/2000/svg"
   xmlns="http://www.w3.org/2000/svg"
   xmlns:sodipodi="http://sodipodi.sourceforge.net/DTD/sodipodi-0.dtd"
   xmlns:inkscape="http://www.inkscape.org/namespaces/inkscape"
   inkscape:version="1.0 (1.0+r73+1)"
   sodipodi:docname="css3.svg"
   id="svg261"
   version="1.1"
   viewBox="0 0 538.584 538.583"
   height="2500"
   width="2500">
  <metadata
     id="metadata267">
    <rdf:RDF>
      <cc:Work
         rdf:about="">
        <dc:format>image/svg+xml</dc:format>
        <dc:type
           rdf:resource="http://purl.org/dc/dcmitype/StillImage" />
        <dc:title></dc:title>
      </cc:Work>
    </rdf:RDF>
  </metadata>
  <defs
     id="defs265" />
  <sodipodi:namedview
     inkscape:current-layer="svg261"
     inkscape:window-maximized="1"
     inkscape:window-y="27"
     inkscape:window-x="0"
     inkscape:cy="738.33489"
     inkscape:cx="1439.079"
     inkscape:zoom="0.44519443"
     showgrid="false"
     id="namedview263"
     inkscape:window-height="943"
     inkscape:window-width="1920"
     inkscape:pageshadow="2"
     inkscape:pageopacity="0"
     guidetolerance="10"
     gridtolerance="10"
     objecttolerance="10"
     borderopacity="1"
     bordercolor="#666666"
     pagecolor="#ffffff" />
  <path
     style="stroke-width:1.06189"
     id="path219"
     fill="none"
     d="M -16.28678,-23.811544 H 555.63131 V 548.10545 H -16.28678 Z" />
  <path
     sodipodi:nodetypes="cccccc"
     style="stroke-width:1.06189"
     id="path221"
     fill="#2062af"
     d="M 413.79228,472.57413 269.15184,511.5201 124.50956,472.57413 91.13215,110.97335 h 356.04177 z" />
  <path
     style="stroke-width:1.06189"
     id="path223"
     fill="#3c9cd7"
     d="m 269.15079,140.26246 v 340.19516 l 0.32706,0.0892 117.05142,-31.51909 27.01771,-308.76527 z" />
  <path
     sodipodi:nodetypes="ccccccccccccccccccccccccccccccc"
     style="stroke-width:1.06189"
     id="path225"
     d="M 187.06243,57.846892 V 36.324463 h 31.40119 V 12.773821 h -54.95183 v 66.563641 h 54.95183 v -21.49057 z m 87.88841,-21.522429 h 21.95359 V 12.773821 h -54.95715 v 23.550642 c 7.35254,7.35254 11.18702,10.871652 21.82079,21.505438 -6.21628,0 -21.82079,0.0223 -21.82079,0.02124 v 21.486323 h 54.95715 V 57.846892 Z m 77.89203,0 h 21.95249 V 12.773821 h -54.95935 v 23.550642 c 7.35257,7.35254 11.18919,10.871652 21.82298,21.505438 -6.2142,0 -21.82298,0.0223 -21.82298,0.02124 v 21.486323 h 54.96041 V 57.846892 Z" />
  <path
     style="stroke-width:1.06189"
     id="path227"
     fill="#ffffff"
     d="m 269.54049,230.67725 -103.52371,43.11495 3.43309,42.68699 100.09062,-42.79531 106.47072,-45.52118 4.41429,-43.66713 z" />
  <linearGradient
     gradientTransform="matrix(1.061892,0,0,-1.061892,1093.861,1737.6114)"
     y2="1419.102"
     x2="-825.508"
     y1="1338.301"
     x1="-825.508"
     gradientUnits="userSpaceOnUse"
     id="a">
    <stop
       id="stop229"
       stop-opacity="0"
       stop-color="#d1d3d4"
       offset=".387" />
    <stop
       id="stop231"
       stop-color="#d1d3d4"
       offset="1" />
  </linearGradient>
  <path
     sodipodi:nodetypes="ccccc"
     style="fill:url(#a);stroke-width:1.06189"
     id="path234"
     fill="url(#a)"
     d="m 165.49753,273.7922 -14.55558,42.68699 100.09064,-42.79531 17.98864,-43.00663 z" />
  <linearGradient
     gradientTransform="matrix(1.061892,0,0,-1.061892,1093.861,1737.6114)"
     y2="1462.591"
     x2="-724.552"
     y1="1378.602"
     x1="-724.552"
     gradientUnits="userSpaceOnUse"
     id="b">
    <stop
       id="stop236"
       stop-opacity="0"
       stop-color="#d1d3d4"
       offset=".387" />
    <stop
       id="stop238"
       stop-color="#d1d3d4"
       offset="1" />
  </linearGradient>
  <path
     sodipodi:nodetypes="ccccc"
     style="fill:url(#b);stroke-width:1.06189"
     id="path241"
     fill="url(#b)"
     d="M 379.90731,184.49663 269.0223,230.67725 v 43.00663 L 375.49302,228.1627 Z" />
  <linearGradient
     gradientTransform="matrix(1.061892,0,0,-1.061892,1093.861,1737.6114)"
     y2="1302.263"
     x2="-680.039"
     y1="1302.263"
     x1="-874.103"
     gradientUnits="userSpaceOnUse"
     id="c">
    <stop
       id="stop243"
       stop-color="#e8e7e5"
       offset="0" />
    <stop
       id="stop245"
       stop-color="#fff"
       offset="1" />
  </linearGradient>
  <path
     sodipodi:nodetypes="ccccccccccccc"
     style="fill:url(#c);stroke-width:1.06189"
     id="path248"
     fill="url(#c)"
     d="m 165.65681,273.7922 3.43417,42.68699 153.57603,0.48953 -3.43522,56.9153 -50.5355,14.22722 -48.5793,-12.26591 -2.94356,-35.32703 h -45.13889 l 5.88819,68.20002 91.26416,26.9848 90.76958,-26.49526 11.77639,-135.41566 z" />
  <path
     style="stroke-width:1.06189"
     id="path250"
     opacity="0.05"
     d="M 269.54049,273.7922 H 166.01678 l 3.43309,42.68699 100.09062,0.31963 z m 0,114.18312 -0.49059,0.13699 -48.57295,-12.26592 -2.94356,-35.32702 h -45.13783 l 5.88712,68.20002 91.25781,26.98479 z" />
  <linearGradient
     gradientTransform="matrix(1.061892,0,0,-1.061892,1093.861,1737.6114)"
     y2="1442.031"
     x2="-672.341"
     y1="1442.031"
     x1="-883.032"
     gradientUnits="userSpaceOnUse"
     id="d">
    <stop
       id="stop252"
       stop-color="#e8e7e5"
       offset="0" />
    <stop
       id="stop254"
       stop-color="#fff"
       offset="1" />
  </linearGradient>
  <path
     sodipodi:nodetypes="ccccc"
     style="fill:url(#d);stroke-width:1.06189"
     id="path257"
     fill="url(#d)"
     d="m 156.17518,184.49663 h 223.73213 l -4.41429,43.66713 H 161.57171 Z" />
  <path
     sodipodi:nodetypes="ccccc"
     style="stroke-width:1.06189"
     id="path259"
     opacity="0.05"
     d="M 269.54049,184.49663 H 156.69337 l 5.39653,43.66713 h 107.45059 z" />
</svg>
