<?xml version="1.0" encoding="UTF-8" standalone="no"?>
<svg
   xmlns:dc="http://purl.org/dc/elements/1.1/"
   xmlns:cc="http://creativecommons.org/ns#"
   xmlns:rdf="http://www.w3.org/1999/02/22-rdf-syntax-ns#"
   xmlns:svg="http://www.w3.org/2000/svg"
   xmlns="http://www.w3.org/2000/svg"
   xmlns:sodipodi="http://sodipodi.sourceforge.net/DTD/sodipodi-0.dtd"
   xmlns:inkscape="http://www.inkscape.org/namespaces/inkscape"
   inkscape:version="1.0 (1.0+r73+1)"
   sodipodi:docname="git.svg"
   id="svg526"
   version="1.1"
   preserveAspectRatio="xMinYMin meet"
   viewBox="0 0 256 255.92417"
   height="2500"
   width="2500">
  <metadata
     id="metadata532">
    <rdf:RDF>
      <cc:Work
         rdf:about="">
        <dc:format>image/svg+xml</dc:format>
        <dc:type
           rdf:resource="http://purl.org/dc/dcmitype/StillImage" />
        <dc:title></dc:title>
      </cc:Work>
    </rdf:RDF>
  </metadata>
  <defs
     id="defs530" />
  <sodipodi:namedview
     inkscape:current-layer="svg526"
     inkscape:window-maximized="1"
     inkscape:window-y="27"
     inkscape:window-x="0"
     inkscape:cy="851.1246"
     inkscape:cx="1250"
     inkscape:zoom="0.618"
     showgrid="false"
     id="namedview528"
     inkscape:window-height="943"
     inkscape:window-width="1920"
     inkscape:pageshadow="2"
     inkscape:pageopacity="0"
     guidetolerance="10"
     gridtolerance="10"
     objecttolerance="10"
     borderopacity="1"
     bordercolor="#666666"
     pagecolor="#ffffff" />
  <path
     id="path522"
     fill="#2f2707"
     d="m 152.98397,111.043 c -5.597,0 -9.765,2.748 -9.765,9.362 0,4.983 2.747,8.443 9.463,8.443 5.693,0 9.56,-3.355 9.56,-8.65 0,-6 -3.46,-9.155 -9.258,-9.155 z m -11.19,46.701 c -1.325,1.625 -2.645,3.353 -2.645,5.39 0,4.067 5.186,5.291 12.31,5.291 5.9,0 13.938,-0.414 13.938,-5.9 0,-3.261 -3.867,-3.462 -8.753,-3.768 z m 30.113,-46.394 c 1.828,2.34 3.764,5.597 3.764,10.276 0,11.292 -8.851,17.904 -21.667,17.904 -3.259,0 -6.209,-0.406 -8.038,-0.914 l -3.359,5.39 9.969,0.61 c 17.602,1.122 27.975,1.632 27.975,15.157 0,11.702 -10.272,18.311 -27.975,18.311 -18.413,0 -25.433,-4.68 -25.433,-12.716 0,-4.578 2.035,-7.015 5.596,-10.378 -3.358,-1.419 -4.476,-3.961 -4.476,-6.71 0,-2.24 1.118,-4.273 2.952,-6.208 1.83,-1.93 3.864,-3.865 6.306,-6.103 -4.984,-2.442 -8.75,-7.732 -8.75,-15.262 0,-11.697 7.733,-19.731 23.295,-19.731 4.376,0 7.022,0.402 9.362,1.017 h 19.84 v 8.644 z m 27.259,-18.487 c -5.8,0 -9.157,-3.36 -9.157,-9.161 0,-5.793 3.356,-8.95 9.157,-8.95 5.9,0 9.258,3.157 9.258,8.95 0,5.801 -3.357,9.161 -9.258,9.161 z M 186.03997,154 v -8.033 l 5.19,-0.71 c 1.425,-0.205 1.627,-0.509 1.627,-2.038 v -29.91 c 0,-1.116 -0.304,-1.832 -1.325,-2.134 l -5.492,-1.935 1.118,-8.238 h 21.061 v 42.217 c 0,1.63 0.098,1.833 1.629,2.039 l 5.188,0.71 V 154 Z m 69.227,-3.944 c -4.376,2.135 -10.785,4.068 -16.586,4.068 -12.106,0 -16.682,-4.878 -16.682,-16.38 v -26.651 c 0,-0.61 0,-1.017 -0.817,-1.017 h -7.12 v -9.057 c 8.955,-1.02 12.513,-5.496 13.632,-16.585 h 9.666 v 14.45 c 0,0.71 0,1.017 0.815,1.017 h 14.343 v 10.173 h -15.158 v 24.313 c 0,6.002 1.426,8.34 6.917,8.34 2.852,0 5.799,-0.71 8.24,-1.626 l 2.75,8.954" />
  <path
     id="path524"
     fill="#de4c36"
     d="M 104.52897,123.359 58.012969,76.846 a 6.86,6.86 0 0 0 -9.703,0 l -9.659,9.66 12.253,12.252 a 8.145,8.145 0 0 1 8.383,1.953 8.157,8.157 0 0 1 1.936,8.434 l 11.807,11.809 c 2.857,-0.984 6.154,-0.347 8.435,1.938 a 8.161,8.161 0 0 1 0,11.545 8.164,8.164 0 0 1 -13.324,-8.88 l -11.012,-11.012 -10e-4,28.98 a 8.248,8.248 0 0 1 2.159,1.544 8.164,8.164 0 0 1 0,11.547 c -3.19,3.19 -8.36,3.19 -11.545,0 a 8.164,8.164 0 0 1 2.672,-13.328 v -29.25 a 8.064,8.064 0 0 1 -2.672,-1.782 c -2.416,-2.413 -2.997,-5.958 -1.759,-8.925 l -12.078,-12.08 -31.8939999,31.892 a 6.863,6.863 0 0 0 0,9.706 l 46.5159999,46.514 a 6.862,6.862 0 0 0 9.703,0 l 46.299001,-46.297 a 6.866,6.866 0 0 0 0,-9.707" />
</svg>
