<?xml version="1.0" encoding="UTF-8" standalone="no"?>
<svg
   xmlns:dc="http://purl.org/dc/elements/1.1/"
   xmlns:cc="http://creativecommons.org/ns#"
   xmlns:rdf="http://www.w3.org/1999/02/22-rdf-syntax-ns#"
   xmlns:svg="http://www.w3.org/2000/svg"
   xmlns="http://www.w3.org/2000/svg"
   xmlns:sodipodi="http://sodipodi.sourceforge.net/DTD/sodipodi-0.dtd"
   xmlns:inkscape="http://www.inkscape.org/namespaces/inkscape"
   inkscape:version="1.0 (1.0+r73+1)"
   sodipodi:docname="ionic.svg"
   id="svg420"
   version="1.1"
   preserveAspectRatio="xMinYMin meet"
   viewBox="0 0 512 512.01373"
   height="2500"
   width="2500">
  <metadata
     id="metadata426">
    <rdf:RDF>
      <cc:Work
         rdf:about="">
        <dc:format>image/svg+xml</dc:format>
        <dc:type
           rdf:resource="http://purl.org/dc/dcmitype/StillImage" />
        <dc:title></dc:title>
      </cc:Work>
    </rdf:RDF>
  </metadata>
  <defs
     id="defs424" />
  <sodipodi:namedview
     inkscape:current-layer="svg420"
     inkscape:window-maximized="1"
     inkscape:window-y="27"
     inkscape:window-x="0"
     inkscape:cy="825.34951"
     inkscape:cx="1250"
     inkscape:zoom="0.618"
     showgrid="false"
     id="namedview422"
     inkscape:window-height="943"
     inkscape:window-width="1920"
     inkscape:pageshadow="2"
     inkscape:pageopacity="0"
     guidetolerance="10"
     gridtolerance="10"
     objecttolerance="10"
     borderopacity="1"
     bordercolor="#666666"
     pagecolor="#ffffff" />
  <g
     transform="translate(-6.864984e-6,165.89245)"
     id="g418"
     fill="#4e8ef7">
    <path
       id="path408"
       d="m 227.681,66.3 h 3.692 v 69.869 h -3.692 z m 56.157,-1.715 c -20.961,0 -36.776,15.821 -36.776,36.65 0,20.96 15.815,36.648 36.776,36.648 20.963,0 36.782,-15.688 36.782,-36.649 C 320.618,80.406 304.8,64.585 283.838,64.585 Z m 0,69.87 c -18.85,0 -33.087,-14.237 -33.087,-33.22 0,-18.985 14.236,-33.22 33.087,-33.22 18.851,0 33.093,14.235 33.093,33.22 -0.002,18.983 -14.24,33.22 -33.093,33.22 z M 390.355,71.573 c -7.91,-6.46 -17.4,-6.988 -22.278,-6.988 -11.072,0 -23.335,5.143 -27.681,15.162 h -0.268 V 66.3 h -3.692 v 69.869 h 3.692 V 95.96 c 0,-17.533 10.813,-27.946 28.344,-27.946 10.547,0 16.21,3.427 19.772,6.59 5.273,4.746 8.569,12.523 8.569,24.649 v 36.915 h 3.693 V 99.254 c 0,-12.521 -3.295,-21.882 -10.151,-27.681 z M 420.939,66.3 h 3.691 v 69.869 h -3.691 z m 56.158,68.155 c -17.799,0 -33.09,-13.448 -33.09,-33.22 0,-9.492 3.953,-18.72 9.624,-23.864 7.25,-6.458 13.708,-9.356 23.597,-9.356 13.708,0 25.837,7.644 30.583,20.958 h 4.088 c -5.538,-16.478 -20.566,-24.388 -34.802,-24.388 -21.227,0 -36.784,16.083 -36.784,36.782 0,21.752 16.478,36.516 36.784,36.516 16.61,0 29.792,-9.491 34.668,-23.73 h -4.084 c -3.427,10.416 -14.766,20.302 -30.584,20.302 z" />
    <circle
       id="circle410"
       r="3.9849999"
       cy="44.641998"
       cx="229.52901" />
    <circle
       id="circle412"
       r="3.9849999"
       cy="44.641998"
       cx="422.78299" />
    <circle
       id="circle414"
       r="36.448002"
       cy="89.271004"
       cx="89.373001" />
    <path
       id="path416"
       d="m 163.755,27.424 c 0,-6.923 -5.614,-12.533 -12.535,-12.533 a 12.468,12.468 0 0 0 -8.203,3.072 C 128.07,6.691 109.49,0 89.372,0 40.148,0 0.102,40.047 0.102,89.272 c 0,49.223 40.047,89.271 89.271,89.271 49.224,0 89.27,-40.048 89.27,-89.271 0,-20.118 -6.69,-38.7 -17.961,-53.646 a 12.465,12.465 0 0 0 3.073,-8.202 z M 89.372,175.54 c -47.568,0 -86.269,-38.701 -86.269,-86.27 0,-47.567 38.701,-86.268 86.27,-86.268 19.34,0 37.213,6.399 51.618,17.19 a 12.467,12.467 0 0 0 -2.306,7.231 c 0,6.922 5.612,12.532 12.533,12.532 2.696,0 5.185,-0.858 7.23,-2.306 10.791,14.404 17.19,32.277 17.19,51.62 0.002,47.57 -38.697,86.27 -86.266,86.27 z" />
  </g>
</svg>
