<?xml version="1.0" encoding="UTF-8" standalone="no"?>
<svg
   xmlns:dc="http://purl.org/dc/elements/1.1/"
   xmlns:cc="http://creativecommons.org/ns#"
   xmlns:rdf="http://www.w3.org/1999/02/22-rdf-syntax-ns#"
   xmlns:svg="http://www.w3.org/2000/svg"
   xmlns="http://www.w3.org/2000/svg"
   xmlns:sodipodi="http://sodipodi.sourceforge.net/DTD/sodipodi-0.dtd"
   xmlns:inkscape="http://www.inkscape.org/namespaces/inkscape"
   inkscape:version="1.0 (1.0+r73+1)"
   height="2500"
   width="2500"
   sodipodi:docname="javascript-4.svg"
   id="svg20"
   version="1.1"
   viewBox="0 0 2500 2500"
   enable-background="new 0 0 1776 2500">
  <metadata
     id="metadata26">
    <rdf:RDF>
      <cc:Work
         rdf:about="">
        <dc:format>image/svg+xml</dc:format>
        <dc:type
           rdf:resource="http://purl.org/dc/dcmitype/StillImage" />
        <dc:title></dc:title>
      </cc:Work>
    </rdf:RDF>
  </metadata>
  <defs
     id="defs24" />
  <sodipodi:namedview
     inkscape:current-layer="svg20"
     inkscape:window-maximized="1"
     inkscape:window-y="27"
     inkscape:window-x="0"
     inkscape:cy="1320.2944"
     inkscape:cx="1216.5093"
     inkscape:zoom="0.42426407"
     showgrid="false"
     id="namedview22"
     inkscape:window-height="943"
     inkscape:window-width="1920"
     inkscape:pageshadow="2"
     inkscape:pageopacity="0"
     guidetolerance="10"
     gridtolerance="10"
     objecttolerance="10"
     borderopacity="1"
     bordercolor="#666666"
     pagecolor="#ffffff" />
  <path
     style="stroke-width:1.01564"
     id="path10"
     fill="#e6a329"
     d="M 2155.3005,458.45767 H 351.52 L 520.62443,2292.1996 1253.3087,2500 1985.993,2292.1996 Z" />
  <path
     style="stroke-width:1.01564"
     id="path12"
     fill="#f1bf22"
     d="M 1253.3087,607.85864 V 2344.6067 l 593.6428,-168.1903 144.4244,-1568.55776 z" />
  <path
     style="stroke-width:1.01564"
     id="path14"
     fill="#ffffff"
     d="M 1725.5823,832.82338 H 812.82468 l -63.5792,686.57412 1.32033,-4.2657 h 775.44279 l -25.2895,290.4736 -247.4104,71.1966 -251.0668,-72.3138 -15.03146,-175.8076 h -227.9101 l 32.50055,351.3106 461.50781,131.0178 461.7109,-131.0178 63.5792,-689.5195 H 955.62397 l 10.56268,-229.7382 h 570.99405 l 8.5314,131.6272 h 229.9414 z" />
  <path
     style="stroke-width:1.01564"
     id="path16"
     fill="#ebebeb"
     d="M 1253.5118,832.82338 H 812.82468 l -63.5792,686.57412 1.32033,-4.2657 H 1253.5118 V 1291.1827 H 987.71826 l 10.56268,-229.7383 H 1253.5118 Z M 987.71826,1628.6806 H 759.30034 l 32.50055,351.1075 461.50781,130.8147 v -233.5977 l -251.0668,-72.5169 z" />
  <path
     style="stroke-width:1.01564"
     id="path18"
     fill="#231f20"
     d="M 1077.9073,232.89259 H 917.33426 V 348.16798 H 1192.7764 V 5.795 H 1077.9073 Z M 1589.3847,7.623156 h -279.911 V 127.46893 c 37.3756,37.37564 56.876,55.3525 111.9238,109.48623 h -111.9238 v 109.2831 h 279.911 V 237.15829 L 1477.4609,127.67206 h 111.9238 z" />
</svg>
