<?xml version="1.0" encoding="UTF-8" standalone="no"?>
<svg
   xmlns:dc="http://purl.org/dc/elements/1.1/"
   xmlns:cc="http://creativecommons.org/ns#"
   xmlns:rdf="http://www.w3.org/1999/02/22-rdf-syntax-ns#"
   xmlns:svg="http://www.w3.org/2000/svg"
   xmlns="http://www.w3.org/2000/svg"
   xmlns:sodipodi="http://sodipodi.sourceforge.net/DTD/sodipodi-0.dtd"
   xmlns:inkscape="http://www.inkscape.org/namespaces/inkscape"
   inkscape:version="1.0 (1.0+r73+1)"
   sodipodi:docname="jquery.svg"
   id="svg164"
   version="1.1"
   viewBox="0 0 523.596 523.89706"
   height="2500"
   width="2500">
  <metadata
     id="metadata170">
    <rdf:RDF>
      <cc:Work
         rdf:about="">
        <dc:format>image/svg+xml</dc:format>
        <dc:type
           rdf:resource="http://purl.org/dc/dcmitype/StillImage" />
        <dc:title></dc:title>
      </cc:Work>
    </rdf:RDF>
  </metadata>
  <defs
     id="defs168" />
  <sodipodi:namedview
     inkscape:current-layer="svg164"
     inkscape:window-maximized="1"
     inkscape:window-y="27"
     inkscape:window-x="0"
     inkscape:cy="1140.1436"
     inkscape:cx="402.13101"
     inkscape:zoom="1.747968"
     showgrid="false"
     id="namedview166"
     inkscape:window-height="943"
     inkscape:window-width="1920"
     inkscape:pageshadow="2"
     inkscape:pageopacity="0"
     guidetolerance="10"
     gridtolerance="10"
     objecttolerance="10"
     borderopacity="1"
     bordercolor="#666666"
     pagecolor="#ffffff" />
  <path
     style="stroke-width:1"
     id="path142"
     fill="#131b28"
     d="m 223.74924,243.91073 0.001,-0.005 -3.352,11.88 z m 17.24,25.791 -3.693,-0.022 z m -0.95,17.741 h 0.004 l -22.131,0.08 z m 4.64,-17.719 -3.695,-0.022 z m -2.7,16.211 3.85401,-14.702 -3.85401,14.705 z m 81.48,-67.705 -7.181,33.76 z m -18.46,0 -5.451,25.22 5.451,-25.222 z" />
  <path
     style="stroke-width:1"
     id="path144"
     fill="#131b28"
     d="m 322.22924,216.71073 h -15.356 c -0.852,0 -1.697,0.684 -1.88,1.517 l -5.451,25.222 -5.452,25.223 c -0.181,0.832 -1.025,1.514 -1.877,1.514 h -10.869 c -10.753,0 -9.51,-7.438 -7.30799,-17.627 l 0.066,-0.308 0.241,-1.284 0.046,-0.242 0.49,-2.615 0.526,-2.803 c 0.16,-0.845 0.40201,-2.08 0.562,-2.856 l 2.478,-12.109 2.48,-12.109 c 0.171,-0.835 -0.38799,-1.521 -1.24,-1.521 h -15.762 c -0.85199,0 -1.695,0.686 -1.86999,1.519 l -3.38901,16.079 -3.389,16.077 c -0.003,0.007 -0.004,0.017 -0.005,0.024 l -0.315,1.494 c -3.90299,17.822 -2.86799,34.817 18.34801,35.349 0.34699,0.01 0.61499,0.013 0.61499,0.013 h 33.302 c 0.852,0 1.695,-0.684 1.874,-1.519 l 7.181,-33.757 7.182,-33.76 c 0.176,-0.837 -0.376,-1.52 -1.228,-1.521 z m 61.26,53.65 c 0.854,0 1.41099,0.684 1.24,1.519 l -1.491,7.288 m -1.489,7.291 1.491,-7.292 -1.492,7.295 z m -1.87,1.534 0.008,-0.002 c -4.52,0.036 -18.1,0.14 -28.307,0.14 12.422,0 28.298,-0.137 28.299,-0.138 z m -37.46,-27.019 c -0.012,-0.798 0.896,-2.173 1.75,-2.173 l -1.918,-0.032 c -0.865,8.692 0.168,2.205 0.168,2.205 z" />
  <path
     style="stroke-width:1"
     id="path146"
     fill="#131b28"
     d="m 352.97923,288.12673 c -0.098,0 -0.19799,0 -0.29599,0.002 0.098,-0.002 0.198,-0.002 0.29599,-0.002 z m 30.51001,-17.766 c 0.854,0 1.41099,0.684 1.24,1.519 l -1.491,7.288 -0.243,1.188 m -22.746,7.754 h -0.062 z m -3.77,0.012 h -0.219 z m -1.15,0.003 c -0.12201,0 -0.241,0 -0.36101,0.002 0.12001,-0.002 0.239,-0.002 0.36101,-0.002 z m -1.17,0.002 h -0.317 z m 2.1,-0.005 -0.931,0.002 z m 3.92999,-0.012 c -1.243,0.005 -2.483,0.01 -3.70499,0.013 1.22199,-0.002 2.46399,-0.008 3.70499,-0.013 z m 19.70001,-0.12 z m 1.86,-1.527 1.249,-6.106 -1.25,6.11 z m -26.78001,1.664 h -0.81099 z m -2.28999,0.002 h -1.097 z m 1.16,-0.002 h -0.86401 z m -224.62999,-26.97 2.38599,-10.574 -2.728,12.087 -2.61699,12.312 2.29399,-10.793 c 0.17601,-0.835 0.47701,-2.2 0.66501,-3.032 z m 28.54999,-44.624 h -16.86399 c -0.85401,0 -1.704,0.681 -1.895,1.511 l -1.6,7.058 -1.59901,7.061 c -0.188,0.83 0.35501,1.511 1.20801,1.511 h 16.99499 c 0.853,0 1.69901,-0.681 1.88301,-1.514 l 1.545,-7.058 1.546,-7.053 v -0.002 c 0.183,-0.832 -0.36501,-1.514 -1.21901,-1.514 z m -3.67,23.479 v -0.002 l -4.94599,22.882 z m -48.99,75.81803 c 0,0 8.501,0.109 13.90401,0.109 -4.104,0 -10.88501,-0.075 -13.91101,-0.111 z m 28.88001,-75.82103 -2.38801,10.574 z" />
  <path
     style="stroke-width:1"
     id="path148"
     fill="#131b28"
     d="m 152.86925,238.49573 h -16.99701 c -0.85199,0 -1.70399,0.681 -1.89199,1.514 l -2.38801,10.574 -2.38599,10.574 c -0.188,0.832 -0.488,2.197 -0.66501,3.032 l -2.29399,10.793 -2.292,10.793 a 32.846999,32.847 0 0 1 -0.81801,2.985 c 0,0 -3.17499,9.44803 -8.513,9.34103 -0.22799,-0.005 -0.44799,-0.007 -0.66699,-0.013 -2.58701,-0.049 -4.61901,-0.085 -4.61901,-0.085 h -0.004 c -0.85099,-0.013 -1.706,0.651 -1.90499,1.479 l -1.763,7.41 -1.761,7.406 c -0.197,0.828 0.337,1.512 1.18499,1.526 3.027,0.036 9.80701,0.112 13.91201,0.112 13.33399,0 20.36299,-7.388 24.86899,-28.64703 l 5.27301,-24.398 4.94599,-22.883 c 0.18,-0.831 -0.36999,-1.513 -1.22099,-1.513 z m 241.44999,48.769 c -0.853,0 -1.40501,-0.684 -1.226,-1.52 l 12.78599,-59.89 m 6.21001,59.889 5.171,-25.562 z" />
  <path
     style="stroke-width:1"
     id="path150"
     fill="#131b28"
     d="m 393.27924,286.50573 c -0.10401,-0.417 -0.043,-1.439 0.13799,-2.275 l 6.06801,-28.428 -6.393,29.944 c -0.18001,0.835 0.373,1.519 1.226,1.519 h 1.553 c -0.854,-0.001 -2.49,-0.342 -2.592,-0.76 z m 17.8,0.418 c -0.46401,0.188 -1.543,0.342 -2.39601,0.342 h 1.55301 c 0.853,0 1.68899,-0.684 1.858,-1.521 l 0.30799,-1.519 c -0.17099,0.834 -0.85799,2.509 -1.32299,2.698 z m 3.59999,-13.961 2.28201,-11.282 c -10e-4,0.007 -0.002,0.017 -0.004,0.022 z m 50.45,-43.095 0.704,2.91 c 0.194,0.833 -0.34399,1.509 -1.194,1.511 m -52.24,49.937 2.276,-11.262 z m 52.02901,-57.339 0.69699,2.981 z m -47.469,34.795 c 0.16999,-0.835 0.45099,-2.188 0.628,-3.015 l 2.438,-11.421 -2.761,12.937 z m -10.87,-36.807 c -0.16901,0.806 -0.387,1.824 -0.53,2.498 l -6.068,28.43 6.39299,-29.946 z" />
  <path
     style="stroke-width:1"
     id="path152"
     fill="#131b28"
     d="m 465.82923,232.77773 -0.704,-2.91 -0.69699,-2.981 -0.35301,-1.509 c -1.38099,-5.363 -5.434,-8.459 -14.233,-8.459 l -13.7,-0.015 -12.61699,-0.015 h -14.196 c -0.852,0 -1.69501,0.681 -1.871,1.516 h -10e-4 l -0.628,2.966 -0.74,3.503 -0.20701,0.981 -6.39299,29.946 -6.06801,28.428 c -0.18099,0.836 -0.241,1.858 -0.13799,2.275 0.10299,0.418 1.738,0.76 2.592,0.76 h 12.80799 c 0.85401,0 1.933,-0.154 2.39601,-0.342 0.465,-0.188 1.152,-1.863 1.32199,-2.698 l 2.276,-11.262 2.27901,-11.26 0.004,-0.022 0.304,-1.499 2.762,-12.937 2.438,-11.426 c 0.18099,-0.83 1.021,-1.509 1.871,-1.511 l 40.29999,-0.02 c 0.85001,0 1.389,-0.677 1.194,-1.509 z" />
  <path
     style="stroke-width:1"
     id="path154"
     fill="#131b28"
     d="m 517.70923,206.46472 c -0.854,0.006 -2.248,0.011 -3.102,0.011 h -12.89899 c -0.85401,0 -1.94501,0.576 -2.42701,1.28001 l -28.52199,41.787 c -0.48201,0.706 -1.031,0.601 -1.22101,-0.229 l -2.09899,-9.207 c -0.189,-0.833 -1.04401,-1.511 -1.89601,-1.511 h -18.33799 c -0.85301,0 -1.35801,0.669 -1.12501,1.489 l 8.217,28.784 c 0.23401,0.82 0.251,2.168 0.04,2.994 l -3.58099,13.931 c -0.213,0.827 0.31199,1.504 1.166,1.504 h 18.12199 c 0.853,0 1.724,-0.677 1.93601,-1.504 l 3.58299,-13.931 c 0.211,-0.826 0.804,-2.061 1.318,-2.742 l 46.306,-61.459 c 0.514,-0.68101 0.23501,-1.23501 -0.616,-1.22901 z m -145.67999,36.04901 -0.001,-0.017 c -0.10701,0.925 -0.961,1.604 -1.81201,1.604 h -23.248 c -0.80399,0 -1.21299,-0.547 -1.09399,-1.221 0.007,-0.02 0.01,-0.037 0.021,-0.054 0,0 -0.008,0.002 -0.015,0.007 0.005,-0.027 0.005,-0.052 0.013,-0.078 l 0.106,-0.396 c 2.22099,-5.903 6.743,-9.778 15.243,-9.778 9.569,0.001 11.43699,4.677 10.787,9.933 z m -6.82001,-26.834 c -29.84099,0 -36.91199,18.113 -40.87899,36.394 -3.967,18.633 -3.625,36.055 27.253,36.055 h 1.097 c 0.098,-0.002 0.197,-0.002 0.29499,-0.002 h 1.992 c 0.12001,-0.002 0.239,-0.002 0.36101,-0.002 l 0.931,-0.002 h 0.21799 c 1.223,-0.002 2.463,-0.008 3.705,-0.012 h 0.062 c 8.155,-0.032 16.334,-0.094 19.646,-0.12 0.848,-0.013 1.677,-0.696 1.851,-1.523 l 1.25,-6.11 0.243,-1.189 1.492,-7.287 c 0.17099,-0.836 -0.388,-1.52 -1.24,-1.52 h -27.76201 c -11.04099,0 -14.31899,-2.934 -13.11099,-11.56 h 44.377 l -0.004,0.005 c 0.011,0 0.021,-0.005 0.03,-0.005 0.705,-0.013 1.357,-0.498 1.616,-1.145 0.049,-0.125 0.091,-0.254 0.107,-0.388 l -0.005,0.005 c 6.589,-24.854 4.69899,-41.592 -23.52801,-41.592 z m -141.03999,26.739 -0.42,1.487 -10e-4,0.005 -3.351,11.875 -3.35,11.873 c -0.231,0.82 -1.118,1.491 -1.973,1.491 h -17.73499 c -13.452,0 -16.729,-10.521 -13.452,-26.042 3.274,-15.874 9.69699,-25.742 22.93799,-26.741 18.093,-1.364 21.713,11.362 17.344,26.052 z m 12.16301,25.818 c 0,0 8.36199,-20.303 10.262,-32.031 2.58899,-15.699 -5.271,-38.46601 -35.63101,-38.46601 -30.187,0 -43.29499,21.73701 -48.29699,45.36701 -5.001,23.801 1.552,44.675 31.56699,44.504 l 23.679,-0.088 22.131,-0.08 c 0.853,-0.008 1.724,-0.684 1.941,-1.507 l 3.85401,-14.705 c 0.21499,-0.825 -0.30601,-1.504 -1.15801,-1.509 l -3.695,-0.021 -3.693,-0.022 c -0.72599,-0.005 -1.141,-0.474 -1.053,-1.097 a 1.4999999,1.5 0 0 1 0.091,-0.347 z" />
  <path
     style="stroke-width:1"
     id="path156"
     fill="#131b28"
     d="m 385.76924,254.64773 a 1.0180007,1.0180008 0 1 1 -2.036,0 1.0180007,1.0180008 0 0 1 2.036,0 z" />
  <path
     style="stroke-width:1"
     id="path158"
     fill="#0868ac"
     d="m 5.8282913,228.24873 c -8.3349997,11.98 -7.2979994,27.566 -0.9309999,40.295 0.1509999,0.306 0.3109999,0.605 0.4669999,0.906 0.1,0.19 0.193,0.386 0.298,0.573 0.059,0.112 0.1239999,0.223 0.186,0.33 0.1079999,0.202 0.2199999,0.396 0.332,0.593 0.197,0.35 0.3999999,0.696 0.6069999,1.043 0.115,0.19 0.2290001,0.381 0.347,0.571 0.2290001,0.371 0.465,0.737 0.7060001,1.104 0.1,0.156 0.1969999,0.312 0.2999999,0.464 0.332,0.495 0.6720005,0.988 1.0209998,1.475 l 0.029,0.039 c 0.056,0.078 0.1160001,0.153 0.1729998,0.231 0.3029993,0.418 0.6150003,0.83 0.9310012,1.238 0.116,0.148 0.232999,0.298 0.350999,0.446 a 75.152997,75.153 0 0 0 1.189001,1.451 53.793998,53.794 0 0 0 1.222,1.394 c 0.018,0.02 0.032,0.031 0.046,0.051 a 58.824998,58.825 0 0 0 2.583001,2.632 c 0.133999,0.127 0.266,0.257 0.398,0.378 a 49.266998,49.267 0 0 0 1.353999,1.231 c 0.077,0.068 0.156,0.133 0.232,0.198 0.397,0.345 0.803,0.687 1.210001,1.022 0.165999,0.135 0.334999,0.267 0.502,0.4 0.332999,0.267 0.67,0.53 1.009999,0.789 l 0.539,0.41 c 0.375,0.275 0.752,0.547 1.133,0.813 0.14,0.1 0.273,0.197 0.413001,0.292 0.039,0.027 0.074,0.055 0.112999,0.081 0.361001,0.249 0.731,0.488 1.1,0.728 0.159001,0.105 0.316,0.215 0.477,0.317 0.566,0.359 1.142,0.713 1.723,1.055 0.157001,0.091 0.317,0.179 0.476,0.269 0.428,0.247 0.857,0.488 1.293,0.726 0.235001,0.127 0.478,0.246 0.715,0.368 0.308,0.161 0.613,0.325 0.926,0.481 0.07,0.034 0.144,0.068 0.214,0.103 0.125,0.061 0.252,0.119 0.378,0.183 a 59.306998,59.307 0 0 0 1.777,0.819 c 0.565,0.246 1.135,0.483 1.71,0.71 0.138,0.057 0.277,0.11 0.416,0.164 a 59.484998,59.485 0 0 0 1.815999,0.668 c 0.595001,0.208 1.195001,0.40001 1.8,0.58902 0.144001,0.042 0.289001,0.088 0.435001,0.13 0.614999,0.186 1.224,0.407 1.856999,0.524 40.311,7.35101 52.019999,-24.22402 52.019999,-24.22402 -9.834,12.812 -27.289999,16.19 -43.828999,12.429 -0.626,-0.142 -1.233999,-0.337 -1.846,-0.518 a 53.387998,53.388 0 0 1 -2.236999,-0.718 l -0.244,-0.088 a 57.276998,57.277 0 0 1 -1.567001,-0.581 c -0.146,-0.059 -0.293,-0.114 -0.438999,-0.173 a 51.414998,51.415 0 0 1 -1.692,-0.703 c -0.114001,-0.049 -0.225,-0.101 -0.338001,-0.149 a 77.237998,77.238 0 0 1 -1.839999,-0.862 c -0.371,-0.181 -0.737,-0.373 -1.104001,-0.562 -0.244999,-0.129 -0.493999,-0.251 -0.736999,-0.386 a 42.672999,42.673 0 0 1 -1.323,-0.742 c -0.147,-0.083 -0.298,-0.163 -0.446,-0.249 a 63.029998,63.03 0 0 1 -1.724,-1.056 c -0.156,-0.1 -0.31,-0.206 -0.465,-0.31 a 47.359999,47.36 0 0 1 -1.226001,-0.815 c -0.134999,-0.09 -0.263999,-0.188 -0.395999,-0.277 -0.39,-0.275 -0.775,-0.555 -1.159,-0.838 -0.174,-0.129 -0.345,-0.26 -0.514,-0.389 a 84.887997,84.888 0 0 1 -1.513,-1.191 59.451998,59.452 0 0 1 -1.302,-1.098 l -0.144,-0.12 a 59.959998,59.96 0 0 1 -1.369,-1.245 c -0.131,-0.125 -0.258,-0.246 -0.386,-0.371 a 40.705998,40.706 0 0 1 -0.983999,-0.965 c -0.129001,-0.129 -0.259001,-0.256 -0.386001,-0.385 -0.409999,-0.42 -0.811999,-0.846 -1.207,-1.277 l -0.06,-0.063 a 49.014998,49.015 0 0 1 -1.225,-1.394 c -0.108,-0.13 -0.213999,-0.254 -0.320999,-0.381 a 51.129999,51.13 0 0 1 -0.881001,-1.09 26.984999,26.985 0 0 1 -0.323,-0.402 c -0.347,-0.45 -0.685999,-0.899 -1.017999,-1.355 -9.1830009,-12.524 -12.4810008,-29.8 -5.143,-43.987" />
  <path
     style="stroke-width:1"
     id="path160"
     fill="#0868ac"
     d="m 31.701292,218.15573 c -6.027,8.674 -5.7,20.286 -0.998,29.46 a 38.345999,38.346 0 0 0 2.666,4.451 c 0.903,1.294 1.904,2.834 3.103,3.875 0.434999,0.479 0.889,0.945 1.353,1.404 0.117,0.12 0.237,0.234 0.355999,0.352 0.45,0.437 0.908001,0.867 1.382001,1.284 0.02,0.015 0.037,0.034 0.056,0.049 0.006,0.005 0.011,0.007 0.014,0.013 0.523,0.459 1.064001,0.901 1.614001,1.335 0.122,0.093 0.242,0.19 0.366,0.286 0.55,0.422 1.111999,0.837 1.687999,1.233 0.018,0.012 0.032,0.024 0.049,0.037 0.254,0.176 0.513001,0.339 0.771,0.508 0.123001,0.08 0.240001,0.166 0.365001,0.241 0.410999,0.264 0.827,0.521 1.251,0.767 0.061,0.037 0.118,0.068 0.177,0.103 0.364999,0.21 0.734999,0.417 1.105999,0.617 0.13,0.073 0.261001,0.137 0.394001,0.205 0.255999,0.135 0.512999,0.271 0.773,0.4 0.039,0.02 0.079,0.037 0.117,0.054 0.531,0.262 1.065999,0.514 1.612999,0.752 0.117001,0.052 0.238001,0.098 0.356,0.146 0.438,0.186 0.879001,0.367 1.323,0.537 0.188,0.071 0.379,0.14 0.566,0.208 0.403,0.149 0.808,0.286 1.215001,0.423 0.184999,0.059 0.364999,0.119 0.55,0.176 0.578999,0.18 1.151999,0.407 1.755999,0.508 31.122999,5.156 38.308999,-18.807 38.308999,-18.807 -6.478,9.329 -19.020999,13.779 -32.404999,10.305 a 38.001999,38.002 0 0 1 -2.292,-0.681 35.139999,35.14 0 0 1 -1.79,-0.633 40.372999,40.373 0 0 1 -1.327,-0.535 c -0.119,-0.051 -0.24,-0.098 -0.357,-0.151 a 37.453999,37.454 0 0 1 -1.623,-0.754 c -0.275,-0.134 -0.544999,-0.276 -0.814,-0.415 l -0.47,-0.242 a 36.879999,36.88 0 0 1 -1.03,-0.581 c -0.081,-0.046 -0.165,-0.091 -0.247,-0.139 -0.421,-0.247 -0.836,-0.5 -1.247,-0.762 -0.127,-0.081 -0.249,-0.168 -0.376,-0.251 a 49.172998,49.173 0 0 1 -0.808999,-0.535 45.034999,45.035 0 0 1 -1.682001,-1.23 c -0.127,-0.1 -0.254,-0.198 -0.379,-0.298 -5.858999,-4.626 -10.502999,-10.947 -12.710999,-18.115 -2.314,-7.434 -1.815,-15.779 2.194,-22.551" />
  <path
     style="stroke-width:1"
     id="path162"
     fill="#0868ac"
     d="m 53.462291,210.61473 c -3.552999,5.229 -3.901999,11.724 -1.437,17.5 2.601001,6.13 7.929,10.94 14.147,13.22 0.256,0.096 0.513,0.181 0.772,0.269 0.113,0.034 0.226,0.074 0.340999,0.107 0.366001,0.115 0.729,0.249 1.108001,0.32 17.185,3.32 21.845999,-8.818 23.086999,-10.605 -4.083,5.879 -10.944999,7.29 -19.363999,5.247 a 21.909999,21.91 0 0 1 -2.037,-0.629 24.899,24.899 0 0 1 -2.419001,-1.005 25.021,25.021 0 0 1 -4.240999,-2.588 c -7.534,-5.716 -12.213999,-16.621 -7.298,-25.50201 m 190.887949,105.52104 -4.954,11.281 h -5.46899 l 0.44799,-10.251 -4.026,10.251 h -5.295 l -0.13999,-11.281 0.58499,-2.786 h 3.75 l -0.723,11.144 4.16301,-11.144 h 5.228 l -0.37801,11.282 4.12801,-11.282 h 3.267 z m 8.63,3.34 c 0.481,-2.203 0.344,-2.615 -0.791,-2.615 h -1.721 l -1.101,5.161 -1.68599,5.397 h -3.19801 l 2.613,-12.243 0.38,-1.79 h 2.92301 l 0.37899,0.825 c 0,0 1.686,-0.996 3.335,-0.996 3.51,0 3.234,2.646 2.477,6.26 z m 10.39,-7.881 c -1.409,0 -2.304,-0.412 -1.95999,-2.131 0.37799,-1.721 1.479,-2.134 2.85399,-2.134 1.37801,0 2.306,0.413 1.928,2.134 -0.346,1.685 -1.445,2.131 -2.822,2.131 z m -1.513,15.824 h -3.166 l 0.62,-5.503 1.10101,-5.09 -2.20001,-0.483 0.618,-2.991 h 6.019 z m 13.723,-11.083 -3.955,0.484 -1.137,5.365 c -0.31,1.48 -0.31,1.893 0.999,1.893 h 2.64701 l -0.55101,2.819 c 0,0 -2.406,0.723 -3.43899,0.723 -4.05901,0 -4.02501,-2.235 -3.30101,-5.573 l 1.101,-5.262 -2.202,-0.48 0.65301,-2.993 h 2.30599 l 1.308,-3.545 h 3.13001 l -0.758,3.545 h 3.85299 z m 8.22,0.179 c -1.856,0 -2.82,0.965 -3.198,2.684 l 5.297,-0.447 c 0.239,-1.169 -0.001,-2.237 -2.099,-2.237 z m -3.713,5.228 c -0.243,1.722 0.411,2.305 2.612,2.305 h 5.537 l -0.55,2.614 c 0,0 -3.336,0.928 -5.81199,0.928 -6.15701,0 -6.22701,-3.471 -5.43501,-7.188 0.791,-3.646 2.20001,-7.256 8.15,-7.256 5.746,0 6.021,3.473 4.61,8.597 z m 21.733,5.673 h -3.163 l 0.619,-5.503 2.236,-10.457 -2.204,-0.515 0.654,-2.993 h 6.021 z m 11.43,-10.901 c -1.859,0 -2.821,0.965 -3.2,2.684 l 5.298,-0.447 c 0.23899,-1.169 -0.001,-2.237 -2.098,-2.237 z m -3.716,5.228 c -0.24,1.722 0.414,2.305 2.613,2.305 h 5.539 l -0.551,2.614 c 0,0 -3.338,0.928 -5.814,0.928 -6.157,0 -6.225,-3.471 -5.434,-7.188 0.792,-3.646 2.202,-7.256 8.152,-7.256 5.744,0 6.02,3.473 4.61,8.597 z m 23.626,-5.057 c 0,0 -4.024,0.034 -5.125,0.034 -2.34,0 -2.58,0.721 -2.751,1.477 l -0.14,0.688 7.43099,0.552 c 0,0 0.034,2.373 -0.27499,3.714 -0.447,2.236 -2.752,4.505 -6.913,4.505 -2.065,0 -5.401,-0.789 -5.401,-0.789 l 0.584,-2.717 h 5.126 c 2.271,0 2.581,-0.621 2.72,-1.238 l 0.17099,-0.894 -7.29199,-0.552 c 0,0 -0.275,-1.824 0.103,-3.645 0.552,-2.479 2.819,-4.609 6.981,-4.609 2.064,0 5.4,0.754 5.4,0.754 z m 13.83,0 c 0,0 -4.023,0.034 -5.125,0.034 -2.339,0 -2.579,0.721 -2.751,1.477 l -0.14,0.688 7.432,0.552 c 0,0 0.034,2.373 -0.275,3.714 -0.447,2.236 -2.752,4.505 -6.914,4.505 -2.063,0 -5.40001,-0.789 -5.40001,-0.789 l 0.58501,-2.717 h 5.125 c 2.26999,0 2.579,-0.621 2.719,-1.238 l 0.171,-0.894 -7.293,-0.552 c 0,0 -0.274,-1.824 0.103,-3.645 0.552,-2.479 2.82,-4.609 6.984,-4.609 2.062,0 5.398,0.754 5.398,0.754 z m 4.32999,12.97 h -2.75 l 0.10301,-2.065 c -0.999,-0.065 -1.514,-0.788 -1.273,-1.995 0.378,-1.719 1.445,-2.131 2.855,-2.131 1.375,0 2.30199,0.412 1.926,2.131 z m 18.40001,-12.83 c -2.062,0 -2.784,1.238 -3.267,3.508 -0.481,2.271 -0.344,3.611 1.719,3.611 h 2.85499 l 1.58301,-7.119 z m 4.713,8.769 -0.38001,1.824 -2.88699,-0.035 -0.414,-0.893 c 0,0 -2.547,1.098 -4.264,1.098 -4.404,0 -4.611,-3.61 -3.82,-7.256 0.791,-3.715 2.512,-7.224 6.87999,-7.224 1.58401,0 3.715,0.791 3.715,0.791 l 1.754,-5.95 h 3.16601 z m 11.387,-8.909 c -2.682,0 -3.54401,1.511 -4.02401,3.713 -0.44699,2.236 -0.23899,3.75 2.40601,3.75 2.753,0 3.57899,-1.479 4.05999,-3.75 0.483,-2.134 0.34301,-3.713 -2.44199,-3.713 z m -2.338,10.938 c -5.676,0 -6.124,-3.542 -5.367,-7.224 0.792,-3.68 2.787,-7.188 8.463,-7.188 5.64,0 6.15699,3.508 5.364,7.188 -0.79,3.75 -2.786,7.224 -8.46,7.224 z m 32.198,-0.208 0.62,-5.435 0.31,-1.548 c 0.447,-2.062 0.723,-3.576 -1.445,-3.576 h -1.68501 c 0.069,1.066 -0.13899,2.271 -0.41299,3.542 l -1.479,7.017 h -3.199 l 0.61899,-5.435 0.30901,-1.548 c 0.44799,-2.062 0.722,-3.576 -1.442,-3.576 h -1.37801 l -2.271,10.559 h -3.68099 l 2.993,-14.066 h 2.889 l 0.447,0.859 c 0,0 1.962,-1.033 3.544,-1.033 1.203,0 2.09799,0.552 2.408,1.238 0.68699,-0.379 2.64799,-1.238 4.06,-1.238 4.399,0 4.264,3.576 3.472,7.225 l -1.479,7.016 h -3.199 z m 14.62,-10.73 c -2.685,0 -3.54401,1.511 -4.024,3.713 -0.447,2.236 -0.239,3.75 2.40699,3.75 2.751,0 3.579,-1.479 4.06,-3.75 0.48,-2.134 0.34301,-3.713 -2.44299,-3.713 z m -2.33901,10.938 c -5.67799,0 -6.12299,-3.542 -5.36599,-7.224 0.791,-3.68 2.786,-7.188 8.462,-7.188 5.64299,0 6.15699,3.508 5.36499,7.188 -0.78999,3.75 -2.78599,7.224 -8.461,7.224 z m 18.019,-8.148 c 0.48,-2.203 0.34401,-2.615 -0.79,-2.615 h -1.722 l -1.10099,5.161 -1.68701,5.397 h -3.197 l 2.61301,-12.243 0.37899,-1.79 h 2.924 l 0.37701,0.825 c 0,0 1.68699,-0.996 3.339,-0.996 3.507,0 3.231,2.646 2.475,6.26 z m 12.32001,-2.961 c -1.85501,0 -2.81901,0.965 -3.197,2.684 l 5.29499,-0.447 c 0.241,-1.169 -10e-4,-2.237 -2.09799,-2.237 z m -3.715,5.228 c -0.239,1.722 0.41299,2.305 2.61399,2.305 h 5.538 l -0.55,2.614 c 0,0 -3.33699,0.928 -5.812,0.928 -6.157,0 -6.226,-3.471 -5.438,-7.188 0.793,-3.646 2.204,-7.256 8.15301,-7.256 5.743,0 6.02099,3.473 4.60899,8.597 z m 12.205,5.883 c -1.445,0 -2.33801,-0.412 -1.959,-2.097 0.34199,-1.724 1.40799,-2.134 2.85399,-2.134 1.34101,0 2.269,0.41 1.927,2.134 -0.381,1.65 -1.479,2.097 -2.82199,2.097 z" />
</svg>
