<?xml version="1.0" encoding="UTF-8" standalone="no"?>
<svg
   xmlns:dc="http://purl.org/dc/elements/1.1/"
   xmlns:cc="http://creativecommons.org/ns#"
   xmlns:rdf="http://www.w3.org/1999/02/22-rdf-syntax-ns#"
   xmlns:svg="http://www.w3.org/2000/svg"
   xmlns="http://www.w3.org/2000/svg"
   xmlns:sodipodi="http://sodipodi.sourceforge.net/DTD/sodipodi-0.dtd"
   xmlns:inkscape="http://www.inkscape.org/namespaces/inkscape"
   inkscape:version="1.0 (1.0+r73+1)"
   sodipodi:docname="react.svg"
   id="svg328"
   version="1.1"
   preserveAspectRatio="xMinYMin meet"
   viewBox="0 0 256 256.01069"
   height="2500"
   width="2500">
  <metadata
     id="metadata334">
    <rdf:RDF>
      <cc:Work
         rdf:about="">
        <dc:format>image/svg+xml</dc:format>
        <dc:type
           rdf:resource="http://purl.org/dc/dcmitype/StillImage" />
        <dc:title></dc:title>
      </cc:Work>
    </rdf:RDF>
  </metadata>
  <defs
     id="defs332" />
  <sodipodi:namedview
     inkscape:current-layer="svg328"
     inkscape:window-maximized="1"
     inkscape:window-y="27"
     inkscape:window-x="0"
     inkscape:cy="1511.0325"
     inkscape:cx="879.1731"
     inkscape:zoom="0.24777072"
     showgrid="false"
     id="namedview330"
     inkscape:window-height="943"
     inkscape:window-width="1920"
     inkscape:pageshadow="2"
     inkscape:pageopacity="0"
     guidetolerance="10"
     gridtolerance="10"
     objecttolerance="10"
     borderopacity="1"
     bordercolor="#666666"
     pagecolor="#ffffff" />
  <path
     style="display:none"
     id="path320"
     fill="#ffffff"
     d="m 0.754,127.51976 c 0,19.215 18.763,37.152 48.343,47.26301 -5.907,29.73701 -1.058,53.70598 15.136,63.045 16.645,9.6 41.443,2.955 64.98,-17.62002 22.943,19.74402 46.13,27.51402 62.31,18.14802 16.63,-9.62702 21.687,-35.22099 15.617,-65.88699 30.81,-10.18602 48.044,-25.48102 48.044,-44.94902 0,-18.76885 -18.797,-35.005994 -47.979,-45.051992 6.535,-31.933002 0.998,-55.320008 -15.867,-65.045003 -16.259,-9.3759994 -39.716,-1.204 -62.996,19.056001 C 104.122,14.974767 80.897,8.4097655 64.05,18.161765 47.806,27.56476 43.171,51.969766 49.097,82.256768 20.515,92.221766 0.754,108.82691 0.754,127.51976 Z" />
  <path
     id="path322"
     fill="#53c1de"
     d="m 201.025,92.443766 a 151.364,151.364 0 0 0 -7.274,-2.291998 137.5,137.5 0 0 0 1.124,-4.960999 c 5.506,-26.728001 1.906,-48.260003 -10.388,-55.348008 -11.787,-6.798 -31.065,0.290001 -50.535,17.233004 a 151.136,151.136 0 0 0 -5.626,5.163001 137.573,137.573 0 0 0 -3.744,-3.458 C 104.177,30.662762 83.724,23.028761 71.443,30.137762 59.667,36.954766 56.179,57.197768 61.136,82.527768 a 150.91,150.91 0 0 0 1.67,7.484 c -2.894,0.821998 -5.689,1.697998 -8.363,2.629998 -23.922,8.340034 -39.2,21.411984 -39.2,34.969994 0,14.00401 16.4,28.05 41.318,36.566 a 128.44,128.44 0 0 0 6.11,1.91 147.813,147.813 0 0 0 -1.775,8.06701 c -4.726,24.89001 -1.035,44.65298 10.71,51.42798 12.131,6.99502 32.491,-0.195 52.317,-17.525 1.567,-1.37 3.14,-2.82298 4.715,-4.34597 a 148.34,148.34 0 0 0 6.108,5.57297 c 19.204,16.525 38.17,23.19802 49.905,16.405 12.12,-7.016 16.058,-28.24697 10.944,-54.07797 -0.39,-1.973 -0.845,-3.988 -1.355,-6.04002 1.43,-0.422 2.833,-0.858 4.202,-1.312 25.904,-8.582 42.757,-22.45699 42.757,-36.648 0,-13.60701 -15.77,-26.76696 -40.174,-35.167994 z" />
  <path
     id="path324"
     fill="#ffffff"
     d="m 195.406,155.09776 c -1.235,0.409 -2.503,0.804 -3.795,1.187 -2.86,-9.053 -6.72,-18.67999 -11.442,-28.625 4.507,-9.71001 8.217,-19.21285 10.997,-28.207994 2.311,0.670034 4.555,1.375034 6.717,2.120044 20.91,7.1971 33.664,17.83995 33.664,26.03995 0,8.73501 -13.775,20.075 -36.14,27.486 z m -9.28,18.38901 c 2.261,11.422 2.584,21.74901 1.086,29.82201 -1.346,7.25397 -4.052,12.08997 -7.398,14.02697 -7.121,4.122 -22.35,-1.236 -38.772,-15.36797 -1.883,-1.62 -3.78,-3.35 -5.682,-5.18 6.367,-6.96401 12.73,-15.06001 18.94,-24.05001 10.924,-0.96899 21.244,-2.55399 30.603,-4.71699 0.46,1.86 0.87,3.683 1.223,5.46599 z m -93.85,43.13698 c -6.957,2.457 -12.498,2.527 -15.847,0.596 -7.128,-4.11 -10.09,-19.97997 -6.049,-41.26498 a 138.507,138.507 0 0 1 1.65,-7.50199 c 9.255,2.047 19.5,3.52 30.45,4.40799 6.251,8.797 12.798,16.883 19.396,23.96401 a 118.863,118.863 0 0 1 -4.305,3.964 c -8.767,7.66397 -17.552,13.09997 -25.294,15.83497 z M 59.683,155.04376 c -11.018,-3.766 -20.117,-8.66 -26.354,-13.99999 -5.604,-4.8 -8.434,-9.56501 -8.434,-13.43201 0,-8.227 12.267,-18.72185 32.726,-25.85495 a 139.276,139.276 0 0 1 7.777,-2.447041 c 2.828,9.197141 6.537,18.812991 11.013,28.536991 -4.534,9.86901 -8.296,19.638 -11.15,28.943 a 118.908,118.908 0 0 1 -5.578,-1.746 z M 70.609,80.673768 c -4.247,-21.703 -1.427,-38.074003 5.67,-42.182002 7.56,-4.376002 24.275,1.864 41.893,17.507001 1.126,1.000001 2.257,2.047001 3.39,3.130001 -6.564,7.049 -13.051,15.073998 -19.248,23.819998 -10.627,0.985002 -20.8,2.567004 -30.152,4.686002 a 141.525,141.525 0 0 1 -1.553,-6.962 z m 97.467,24.067092 a 306.982,306.98198 0 0 0 -6.871,-11.300093 c 7.21,0.91 14.117,2.12 20.603,3.601001 -1.947,6.241062 -4.374,12.767132 -7.232,19.456982 a 336.42,336.41998 0 0 0 -6.5,-11.75789 z M 128.329,66.026768 c 4.452,4.822999 8.911,10.208998 13.297,16.052 a 284.245,284.24501 0 0 0 -26.706,-0.006 c 4.39,-5.789002 8.887,-11.167001 13.409,-16.046 z M 88.327,104.80686 a 285.24,285.24001 0 0 0 -6.378,11.68489 c -2.811,-6.66685 -5.216,-13.22192 -7.18,-19.551982 6.447,-1.443001 13.322,-2.622001 20.485,-3.517001 a 283.79,283.79001 0 0 0 -6.927,11.384093 z m 7.133,57.6829 c -7.4,-0.826 -14.379,-1.945 -20.824,-3.348 1.995,-6.442 4.453,-13.138 7.324,-19.94799 a 283.494,283.49401 0 0 0 6.406,11.69199 285.27,285.27001 0 0 0 7.094,11.604 z m 33.136,27.38901 c -4.575,-4.937 -9.138,-10.397 -13.595,-16.27 4.326,0.17 8.737,0.256 13.22,0.256 4.606,0 9.159,-0.103 13.64,-0.303 -4.4,5.98 -8.843,11.448 -13.265,16.317 z m 46.072,-51.032 c 3.02,6.88399 5.566,13.54399 7.588,19.87699 -6.552,1.495 -13.625,2.699 -21.078,3.593 a 337.537,337.53699 0 0 0 6.937,-11.498 306.632,306.63198 0 0 0 6.553,-11.97199 z m -14.915,7.14999 a 316.478,316.47798 0 0 1 -10.84,17.49 c -6.704,0.479 -13.632,0.726 -20.692,0.726 -7.031,0 -13.871,-0.219 -20.458,-0.646 a 273.798,273.79801 0 0 1 -11.043,-17.517 271.334,271.33401 0 0 1 -9.64,-18.206 273.864,273.86401 0 0 1 9.611,-18.21586 v 0.002 a 271.252,271.25201 0 0 1 10.956,-17.442134 c 6.72,-0.508 13.61,-0.774 20.575,-0.774 6.996,0 13.895,0.268 20.613,0.78 a 290.704,290.704 0 0 1 10.887,17.383134 316.418,316.41798 0 0 1 9.741,18.12986 290.806,290.806 0 0 1 -9.709,18.29 z M 179.666,38.204766 c 7.566,4.363999 10.509,21.961002 5.755,45.038001 a 127.525,127.525 0 0 1 -1.016,4.492001 c -9.374,-2.162998 -19.554,-3.773 -30.212,-4.773002 -6.209,-8.841 -12.642,-16.879998 -19.1,-23.837998 a 141.92,141.92 0 0 1 5.196,-4.765999 c 16.682,-14.518003 32.273,-20.250005 39.377,-16.153003 z" />
  <path
     id="path326"
     fill="#53c1de"
     d="m 128.221,107.4349 c 11.144,0 20.177,9.03385 20.177,20.17686 0,11.14401 -9.033,20.178 -20.177,20.178 -11.143,0 -20.177,-9.03399 -20.177,-20.178 0,-11.14301 9.034,-20.17686 20.177,-20.17686" />
</svg>
